{"title":"Bad Tutor 2018 Movies 720p HDRip x264 AAC ESubs +Sample ☻rDX☻","magnet":"magnet:?xt=urn:btih:48b41a350a362a03fe8dc08d41c6ba25d31aade2&dn=Bad+Tutor+2018+Movies+720p+HDRip+x264+AAC+ESubs+%2BSample+%E2%98%BBrDX%E2%98%BB&tr=udp%3A%2F%2Ftracker.leechers-paradise.org%3A6969&tr=udp%3A%2F%2Fzer0day.ch%3A1337&tr=udp%3A%2F%2Fopen.demonii.com%3A1337&tr=udp%3A%2F%2Ftracker.coppersurfer.tk%3A6969&tr=udp%3A%2F%2Fexodus.desync.com%3A6969","uploader":"basicssom","categoryP":"video","categoryS":"hd___movies","size":"858117208","seeders":"2","leechers":"42","description":"Bad Tutor 2018 Movies 720p HDRip x264 AAC ESubs with Sample &#x263B;rDX&#x263B;\r\n\r\nSCREEN SHOTS &amp; POSTER:\r\n   <a href=\"\nhttp://iphonehosting.eu/2018/9/credit/index.html\" rel=\"nofollow\" target=\"_NEW\">\nhttp://iphonehosting.eu/2018/9/credit/index.html</a> <a href=\"\nhttp://iphonehosting.eu/2018/9/credit/1.html\" rel=\"nofollow\" target=\"_NEW\">\nhttp://iphonehosting.eu/2018/9/credit/1.html</a> <a href=\"\nhttp://iphonehosting.eu/2018/9/credit/2.html\" rel=\"nofollow\" target=\"_NEW\">\nhttp://iphonehosting.eu/2018/9/credit/2.html</a>   <a href=\"\nhttp://iphonehosting.eu/2018/9/credit/3.html\" rel=\"nofollow\" target=\"_NEW\">\nhttp://iphonehosting.eu/2018/9/credit/3.html</a>   <a href=\"\nhttp://iphonehosting.eu/2018/9/credit/4.html\" rel=\"nofollow\" target=\"_NEW\">\nhttp://iphonehosting.eu/2018/9/credit/4.html</a>   <a href=\"\nhttp://iphonehosting.eu/2018/9/credit/5.html\" rel=\"nofollow\" target=\"_NEW\">\nhttp://iphonehosting.eu/2018/9/credit/5.html</a>   <a href=\"\nhttp://iphonehosting.eu/2018/9/credit/6.html\" rel=\"nofollow\" target=\"_NEW\">\nhttp://iphonehosting.eu/2018/9/credit/6.html</a>   <a href=\"\nhttp://iphonehosting.eu/2018/9/credit/7.html\" rel=\"nofollow\" target=\"_NEW\">\nhttp://iphonehosting.eu/2018/9/credit/7.html</a>   <a href=\"\nhttp://iphonehosting.eu/2018/9/credit/8.html\" rel=\"nofollow\" target=\"_NEW\">\nhttp://iphonehosting.eu/2018/9/credit/8.html</a>   <a href=\"\nhttp://iphonehosting.eu/2018/9/credit/9.html\" rel=\"nofollow\" target=\"_NEW\">\nhttp://iphonehosting.eu/2018/9/credit/9.html</a>   <a href=\"\nhttp://iphonehosting.eu/2018/9/credit/10.html\" rel=\"nofollow\" target=\"_NEW\">\nhttp://iphonehosting.eu/2018/9/credit/10.html</a>\r\n\r\nFile size                                : 810 MiB\r\nDuration                                 : 1 h 25 min\r\nOverall bit rate                         : 1 327 kb/s\r\nMovie name                               : Bad Tutor 2018 Movies 720p HDRip x264 AAC ESubs &#x263B;rDX&#x263B;\r\n\r\nVideo\r\nID                                       : 2\r\nFormat                                   : AVC\r\nFormat/Info                              : Advanced Video Codec\r\nFormat profile                           : Main@L3.1\r\nFormat settings, CABAC                   : Yes\r\nFormat settings, ReFrames                : 2 frames\r\nFormat settings, GOP                     : M=1, N=25\r\nCodec ID                                 : V_MPEG4/ISO/AVC\r\nDuration                                 : 1 h 25 min\r\nBit rate mode                            : Constant\r\nBit rate                                 : 1 200 kb/s\r\nWidth                                    : 1 280 pixels\r\nHeight                                   : 720 pixels\r\nDisplay aspect ratio                     : 16:9\r\nFrame rate mode                          : Constant\r\nFrame rate                               : 29.970 (30000/1001) FPS\r\nColor space                              : YUV\r\nChroma subsampling                       : 4:2:0\r\nBit depth                                : 8 bits\r\nScan type                                : Progressive\r\nBits/(Pixel*Frame)                       : 0.043\r\nStream size                              : 716 MiB (88%)\r\nTitle                                    : &#x263B;rDX&#x263B;\r\nDefault                                  : Yes\r\nForced                                   : No\r\n\r\nAudio\r\nID                                       : 1\r\nFormat                                   : MPEG Audio\r\nFormat version                           : Version 1\r\nFormat profile                           : Layer 3\r\nMode                                     : Joint stereo\r\nMode extension                           : MS Stereo\r\nCodec ID                                 : A_MPEG/L3\r\nCodec ID/Hint                            : MP3\r\nDuration                                 : 1 h 25 min\r\nBit rate mode                            : Constant\r\nBit rate                                 : 128 kb/s\r\nChannel(s)                               : 2 channels\r\nSampling rate                            : 44.1 kHz\r\nCompression mode                         : Lossy\r\nStream size                              : 78.2 MiB (10%)\r\nTitle                                    : &#x263B;rDX&#x263B;\r\nWriting library                          : LAME3.99.5\r\nDefault                                  : Yes\r\nForced                                   : No\r\n <a href=\"\nhttps://www.imdb.com/title/tt8029682/\" rel=\"nofollow\" target=\"_NEW\">\nhttps://www.imdb.com/title/tt8029682/</a>","last_updated":"2018-09-19T12:19:00.259Z","parsed":{"xt":"urn:btih:48b41a350a362a03fe8dc08d41c6ba25d31aade2","dn":"Bad Tutor 2018 Movies 720p HDRip x264 AAC ESubs  Sample ☻rDX☻","tr":["udp://exodus.desync.com:6969","udp://open.demonii.com:1337","udp://tracker.coppersurfer.tk:6969","udp://tracker.leechers-paradise.org:6969","udp://zer0day.ch:1337"],"infoHash":"48b41a350a362a03fe8dc08d41c6ba25d31aade2","infoHashBuffer":{"type":"Buffer","data":[72,180,26,53,10,54,42,3,254,141,192,141,65,198,186,37,211,26,173,226]},"name":"Bad Tutor 2018 Movies 720p HDRip x264 AAC ESubs  Sample ☻rDX☻","announce":["udp://exodus.desync.com:6969","udp://open.demonii.com:1337","udp://tracker.coppersurfer.tk:6969","udp://tracker.leechers-paradise.org:6969","udp://zer0day.ch:1337"],"urlList":[]}}